<?xml version="1.0" standalone="no"?>
<!DOCTYPE svg PUBLIC "-//W3C//DTD SVG 20010904//EN"
 "http://www.w3.org/TR/2001/REC-SVG-20010904/DTD/svg10.dtd">
<svg version="1.0" xmlns="http://www.w3.org/2000/svg"
 width="881.000000pt" height="296.000000pt" viewBox="0 0 881.000000 296.000000"
 preserveAspectRatio="xMidYMid meet">

<g transform="translate(0.000000,296.000000) scale(0.100000,-0.100000)"
fill="#71717a" stroke="none">
<path d="M349 2936 c-96 -34 -169 -140 -169 -247 0 -55 26 -130 60 -171 98
-118 305 -119 412 0 43 47 58 94 58 177 -1 149 -109 255 -260 254 -36 0 -81
-6 -101 -13z"/>
<path d="M2540 1750 l0 -1160 205 0 205 0 0 94 0 94 63 -63 c113 -113 242
-158 447 -157 254 1 430 84 572 271 194 257 234 677 92 988 -109 242 -291 386
-536 424 -87 14 -253 6 -321 -15 -74 -23 -183 -85 -238 -134 l-49 -44 0 431 0
431 -220 0 -220 0 0 -1160z m962 94 c91 -29 179 -119 226 -231 54 -129 50
-318 -9 -443 -37 -79 -117 -163 -188 -197 -50 -25 -67 -28 -161 -28 -93 0
-111 3 -162 27 -262 122 -323 553 -111 779 97 104 255 140 405 93z"/>
<path d="M4290 1750 l0 -1160 205 0 205 0 0 94 0 94 63 -63 c113 -113 242
-158 447 -157 254 1 430 84 572 271 194 257 234 677 92 988 -109 242 -291 386
-536 424 -87 14 -253 6 -321 -15 -74 -23 -183 -85 -238 -134 l-49 -44 0 431 0
431 -220 0 -220 0 0 -1160z m962 94 c91 -29 179 -119 226 -231 54 -129 50
-318 -9 -443 -37 -79 -117 -163 -188 -197 -50 -25 -67 -28 -161 -28 -93 0
-111 3 -162 27 -262 122 -323 553 -111 779 97 104 255 140 405 93z"/>
<path d="M6033 1913 c3 -1094 0 -1037 63 -1154 34 -62 90 -108 171 -140 49
-19 82 -23 216 -27 l157 -4 0 188 0 189 -43 1 c-24 0 -55 4 -71 8 -57 14 -56
-12 -56 1006 l0 930 -220 0 -221 0 4 -997z"/>
<path d="M1438 2240 c-312 -50 -569 -285 -658 -603 -30 -105 -37 -278 -16
-396 59 -338 304 -597 631 -666 125 -27 324 -23 446 8 236 61 413 206 527 434
52 103 73 193 79 343 10 253 -50 433 -205 615 -101 118 -221 195 -377 240 -74
22 -116 27 -230 30 -77 2 -166 0 -197 -5z m309 -400 c51 -16 143 -87 183 -141
52 -72 72 -142 78 -265 7 -176 -26 -280 -122 -375 -64 -64 -125 -95 -215 -110
-229 -38 -429 105 -472 336 -16 84 -6 237 19 307 77 217 298 321 529 248z"/>
<path d="M7274 2240 c-313 -57 -549 -277 -636 -595 -31 -115 -31 -373 1 -490
79 -291 297 -509 577 -576 124 -30 297 -30 417 -1 162 40 321 137 418 256 50
61 139 227 139 259 0 16 -19 17 -217 16 l-218 0 -31 -47 c-97 -149 -370 -176
-544 -52 -39 28 -95 115 -114 179 -30 101 -95 91 568 91 523 0 584 2 590 16
11 29 6 191 -9 277 -56 319 -266 564 -555 647 -85 24 -300 35 -386 20z m226
-351 c142 -23 251 -127 284 -271 l6 -28 -369 0 -369 0 10 38 c26 93 96 184
173 225 41 21 129 45 175 46 14 1 54 -4 90 -10z"/>
<path d="M30 2025 l0 -184 98 -3 97 -3 0 -680 c0 -651 -1 -681 -19 -708 -28
-41 -66 -57 -141 -57 l-65 0 0 -184 0 -183 37 -7 c67 -10 206 -6 278 9 138 29
236 99 291 207 60 116 58 82 61 1071 l4 907 -321 0 -320 0 0 -185z"/>
<path fill="#2563eb" d="M8453 1150 c-59 -12 -112 -42 -154 -87 -56 -58 -72 -98 -77 -191 -4
-77 -2 -87 27 -147 54 -110 130 -154 266 -154 63 -1 90 4 130 23 180 84 221
325 79 471 -71 73 -172 105 -271 85z"/>
</g>
</svg>
